<?xml version="1.0" encoding="UTF-8"?>
<svg id="_0" data-name=" 0" xmlns="http://www.w3.org/2000/svg" version="1.1" viewBox="0 0 85 39.7">
  <defs>
    <style>
      .cls-1 {
        fill: #f90;
        stroke-width: 0px;
      }
    </style>
  </defs>
  <g id="LINE-12">
    <path class="cls-1" d="M41.8-5l7.5-2.8c.2,0,.2-.4,0-.5l-7.1-3.9v1.6c-.1,0-1-1.2-1-1.2-.2-.2-.3-.5-.2-.8v-1.2c0-.2.3-.3.5-.2l9,4.7c0,0,.2,0,.2,0,14.5,3.2,24.8,16.4,24.4,31.3-.5,17.6-15.5,31.4-33.2,30.2s-29.3-14.9-29.1-31.2,14.4-31.3,31.6-31,.5,0,.7.2l2.4,1.5c.2,0,.1.3,0,.4l-2.7.8c-.1,0-.3,0-.4,0-15.6-.3-28.4,12.2-28.8,27.7-.4,15.7,12.1,28.6,27.7,29,15.7.4,28.6-12.1,29-27.7.3-13.4-8.8-25.1-21.7-28.2s-.4,0-.6,0l-9.3,3.1c-.2,0-.4,0-.4-.3v-.9c0-.4.1-.7.4-.9l1.3-1.2v1.5Z"/>
  </g>
</svg>